<svg width="872" height="424" viewBox="0 0 872 424" fill="none" xmlns="http://www.w3.org/2000/svg">
<rect width="872" height="424" rx="16" fill="#F8F9FC"/>
<path d="M405.759 226.862V233.76H373.509V181.486H405.759V188.311H381.913V204.065H400.946V210.745H381.913V226.862H405.759Z" fill="#092C60"/>
<path d="M445.587 233.76H438.189C437.542 233.76 437.111 233.614 436.752 233.251C436.393 232.961 436.106 232.598 435.89 232.235L427.487 218.513C427.271 219.384 426.984 220.11 426.625 220.691L418.94 232.235C418.652 232.598 418.365 232.961 418.078 233.251C417.719 233.614 417.288 233.76 416.785 233.76H409.89L422.603 214.665L410.393 196.732H417.79C418.365 196.732 418.796 196.805 419.083 197.023C419.371 197.168 419.586 197.458 419.873 197.821L428.133 210.89C428.349 210.091 428.708 209.293 429.139 208.567L436.178 197.967C436.608 197.168 437.255 196.732 437.973 196.732H445.084L432.874 214.302L445.587 233.76Z" fill="#092C60"/>
<path fill-rule="evenodd" clip-rule="evenodd" d="M464.026 197.676C462.087 198.838 460.363 200.29 458.855 202.105L458.208 198.184C457.921 197.241 457.203 196.732 456.197 196.732H451.529V246.102H459.214V230.347C460.435 231.581 461.8 232.525 463.308 233.251C464.816 233.977 466.612 234.34 468.767 234.34C471.209 234.34 473.435 233.832 475.375 232.816C477.314 231.872 478.966 230.492 480.33 228.75C481.695 227.008 482.701 224.975 483.419 222.651C484.137 220.256 484.568 217.714 484.568 214.956C484.568 211.906 484.209 209.22 483.562 206.897C482.916 204.501 481.982 202.541 480.761 200.943C479.54 199.346 478.104 198.112 476.452 197.313C474.8 196.442 472.932 196.006 470.85 196.006C468.264 196.006 465.966 196.587 464.026 197.676ZM462.733 227.443C461.441 226.862 460.291 225.846 459.214 224.466V207.26C460.435 205.663 461.728 204.501 463.164 203.63C464.601 202.758 466.325 202.323 468.264 202.323C469.557 202.323 470.706 202.541 471.783 202.976C472.789 203.484 473.651 204.21 474.369 205.227C475.087 206.243 475.662 207.55 476.021 209.147C476.38 210.745 476.596 212.705 476.596 214.956C476.596 219.384 475.734 222.724 474.082 224.902C472.358 227.153 470.06 228.242 467.043 228.242C465.463 228.242 464.026 228.024 462.733 227.443Z" fill="#092C60"/>
<path fill-rule="evenodd" clip-rule="evenodd" d="M499.344 221.345C498.769 219.82 498.482 217.932 498.41 215.827H521.897C522.615 215.827 523.046 215.682 523.333 215.246C523.62 214.81 523.764 214.012 523.764 212.778C523.764 210.164 523.333 207.841 522.543 205.735C521.753 203.702 520.676 201.96 519.311 200.508C517.946 199.056 516.294 197.967 514.355 197.241C512.416 196.515 510.333 196.152 508.106 196.152C505.377 196.152 503.007 196.66 500.852 197.604C498.697 198.547 496.902 199.854 495.393 201.452C493.885 203.121 492.736 205.082 491.946 207.26C491.156 209.51 490.725 211.906 490.725 214.447C490.725 217.714 491.156 220.546 492.09 223.014C492.951 225.483 494.244 227.516 495.824 229.186C497.405 230.855 499.272 232.162 501.427 233.034C503.581 233.905 505.952 234.34 508.537 234.34C509.83 234.34 511.123 234.195 512.488 233.977C513.852 233.76 515.217 233.469 516.51 232.961C517.731 232.525 519.024 231.872 520.173 231.146C521.322 230.42 522.328 229.476 523.261 228.387L521.035 225.483C520.676 225.047 520.245 224.757 519.598 224.757C519.096 224.757 518.593 224.975 518.018 225.338C517.619 225.59 517.15 225.842 516.636 226.119C516.411 226.24 516.176 226.366 515.935 226.499C515.145 226.935 514.14 227.298 513.062 227.661C511.985 228.024 510.692 228.169 509.184 228.169C507.604 228.169 506.167 227.951 504.874 227.443C503.581 226.935 502.504 226.136 501.57 225.12C500.637 224.103 499.918 222.869 499.344 221.345ZM516.223 207.405C516.582 208.567 516.797 209.728 516.797 211.035H498.626C499.057 208.131 500.062 205.88 501.642 204.21C503.222 202.613 505.449 201.815 508.25 201.815C509.615 201.815 510.836 202.032 511.913 202.541C512.99 202.976 513.924 203.63 514.642 204.501C515.361 205.299 515.863 206.316 516.223 207.405Z" fill="#092C60"/>
<path d="M538.909 203.557C540.058 201.234 541.423 199.419 543.075 198.039C544.727 196.732 546.666 196.006 548.964 196.006C549.754 196.006 550.473 196.152 551.191 196.297C551.837 196.515 552.484 196.732 553.058 197.095L552.484 202.976C552.412 203.412 552.268 203.702 552.053 203.847C551.837 203.993 551.55 204.065 551.263 204.065C550.903 204.065 550.329 204.065 549.682 203.92C549.036 203.775 548.318 203.702 547.6 203.702C546.522 203.702 545.517 203.847 544.727 204.138C543.865 204.501 543.146 204.936 542.5 205.517C541.854 206.171 541.279 206.897 540.776 207.768C540.273 208.639 539.771 209.656 539.34 210.745V233.759H531.655V196.732H536.108C536.898 196.732 537.472 196.878 537.831 197.168C538.119 197.458 538.334 198.039 538.478 198.765L538.909 203.557Z" fill="#092C60"/>
<path d="M570.576 234.34C567.559 234.34 565.189 233.469 563.537 231.727C561.885 229.984 561.095 227.588 561.095 224.394V202.831H557.073C556.642 202.831 556.283 202.758 555.995 202.468C555.636 202.178 555.493 201.742 555.493 201.161V198.039L561.454 197.168L563.106 186.423C563.25 186.06 563.465 185.697 563.752 185.479C564.04 185.189 564.399 185.043 564.902 185.043H568.852V197.241H578.979V202.831H568.852V223.886C568.852 225.192 569.139 226.209 569.786 226.935C570.432 227.661 571.294 227.951 572.371 227.951C572.946 227.951 573.521 227.879 573.951 227.734C574.382 227.588 574.742 227.443 575.029 227.225C575.316 227.08 575.603 226.862 575.819 226.717C576.034 226.572 576.322 226.499 576.537 226.499C576.968 226.499 577.255 226.717 577.543 227.225L579.841 231.001C578.62 232.09 577.255 232.888 575.603 233.469C573.951 234.05 572.3 234.34 570.576 234.34Z" fill="#092C60"/>
<path fill-rule="evenodd" clip-rule="evenodd" d="M612.913 182.43C610.543 181.776 607.742 181.486 604.438 181.486H587.272V233.76H606.234C609.178 233.76 611.764 233.397 614.062 232.598C616.361 231.872 618.3 230.855 619.88 229.476C621.46 228.169 622.61 226.572 623.471 224.684C624.262 222.869 624.692 220.836 624.692 218.586C624.692 212.269 621.029 208.349 613.703 206.752C615.283 206.243 616.72 205.59 617.869 204.791C619.018 203.993 620.024 203.121 620.814 202.105C621.604 201.089 622.179 200 622.538 198.838C622.897 197.676 623.112 196.515 623.112 195.28C623.112 193.175 622.753 191.215 622.035 189.545C621.317 187.802 620.239 186.35 618.731 185.189C617.151 184.027 615.283 183.083 612.913 182.43ZM595.675 188.093V204.428H604.079C607.67 204.428 610.328 203.775 612.123 202.323C613.847 200.943 614.709 198.91 614.781 196.297C614.709 193.393 613.919 191.36 612.267 190.053C610.615 188.746 607.957 188.093 604.438 188.093H595.675ZM606.09 227.008C607.957 227.08 609.537 226.79 610.83 226.354C612.123 225.918 613.2 225.338 614.062 224.539C614.852 223.74 615.499 222.869 615.858 221.78C616.217 220.764 616.433 219.602 616.433 218.368C616.433 215.899 615.571 214.012 613.919 212.56C612.267 211.18 609.609 210.454 606.018 210.454H595.675V227.008H606.09Z" fill="#092C60"/>
<path fill-rule="evenodd" clip-rule="evenodd" d="M656.058 197.458C653.904 196.587 651.462 196.152 648.732 196.152C646.003 196.152 643.561 196.587 641.334 197.458C639.18 198.402 637.312 199.637 635.732 201.306C634.152 202.976 633.003 204.936 632.141 207.26C631.279 209.656 630.92 212.269 630.92 215.173C630.92 218.15 631.279 220.764 632.141 223.087C633.003 225.483 634.152 227.443 635.732 229.113C637.312 230.783 639.18 232.09 641.334 232.961C643.561 233.832 646.003 234.34 648.732 234.34C651.462 234.34 653.904 233.832 656.058 232.961C658.285 232.09 660.152 230.783 661.661 229.113C663.241 227.443 664.39 225.483 665.252 223.087C666.114 220.764 666.545 218.15 666.545 215.173C666.545 212.269 666.114 209.656 665.252 207.26C664.39 204.936 663.241 202.976 661.661 201.306C660.152 199.637 658.285 198.402 656.058 197.458ZM656.13 224.829C654.478 227.08 652.036 228.169 648.732 228.169C645.356 228.169 642.914 227.08 641.262 224.829C639.611 222.579 638.82 219.384 638.82 215.246C638.82 211.108 639.611 207.841 641.262 205.59C642.914 203.339 645.356 202.178 648.732 202.178C652.036 202.178 654.478 203.339 656.13 205.59C657.71 207.841 658.572 211.108 658.572 215.246C658.572 219.384 657.71 222.579 656.13 224.829Z" fill="#092C60"/>
<path d="M704.47 233.76H697.073C696.426 233.76 695.995 233.614 695.636 233.251C695.277 232.961 694.99 232.598 694.774 232.235L686.371 218.513C686.155 219.384 685.868 220.11 685.509 220.691L677.824 232.235C677.536 232.598 677.249 232.961 676.962 233.251C676.603 233.614 676.172 233.76 675.669 233.76H668.774L681.487 214.665L669.276 196.732H676.674C677.249 196.732 677.68 196.805 677.967 197.023C678.255 197.168 678.47 197.458 678.757 197.821L687.017 210.89C687.233 210.091 687.592 209.293 688.023 208.567L695.061 197.967C695.492 197.168 696.139 196.732 696.857 196.732H703.968L691.758 214.302L704.47 233.76Z" fill="#092C60"/>
<path d="M253.056 164.711H160.408C157.959 164.722 155.976 166.731 155.965 169.212V281.398C155.962 282.016 156.327 282.575 156.889 282.814C157.45 283.053 158.099 282.927 158.533 282.493L173.737 265.858C174.571 265.036 175.69 264.576 176.855 264.578H253.056C255.505 264.567 257.487 262.558 257.498 260.077V169.212C257.487 166.731 255.505 164.722 253.056 164.711Z" fill="#388BFF"/>
<path d="M297.313 138.439C299.762 138.451 301.745 140.458 301.757 142.937V255.205C301.753 255.795 301.401 256.325 300.862 256.551C300.323 256.776 299.704 256.652 299.29 256.237L284.002 239.489C283.211 238.709 282.151 238.272 281.046 238.272H204.647C202.2 238.26 200.223 236.25 200.223 233.774V142.937C200.223 140.461 202.2 138.451 204.647 138.439L297.313 138.439Z" fill="#22C9A4"/>
<path d="M253.099 164.711H200.223V233.738C200.223 236.234 202.181 238.26 204.603 238.272H257.498V169.245C257.487 166.746 255.524 164.722 253.099 164.711Z" fill="#2465B2"/>
</svg>
